<svg xmlns="http://www.w3.org/2000/svg" width="512" height="512" viewBox="0 0 512 512"><switch><g><path fill="#0A7BBA" d="M506 256.879c0 138.066-111.934 250-250 250-138.067 0-250-111.934-250-250 0-138.067 111.933-250 250-250 138.066 0 250 111.933 250 250zm0 0"/><path fill="#F2F2F2" d="M405.36 276.985v103.076h-59.753v-96.157c0-24.153-8.617-40.647-30.269-40.647-16.493 0-26.308 11.119-30.638 21.869-1.588 3.83-1.98 9.161-1.98 14.558v100.378h-59.774s.805-162.873 0-179.734h59.774v25.478c-.108.196-.282.389-.392.585h.392v-.585c7.943-12.227 22.108-29.702 53.856-29.702 39.321 0 68.784 25.698 68.784 80.881zM160.452 113.698c-20.455 0-33.815 13.426-33.815 31.052 0 17.255 12.969 31.049 33.032 31.049h.37c20.846 0 33.815-13.793 33.815-31.049-.392-17.625-12.969-31.052-33.402-31.052zm-30.268 266.364h59.731V200.328h-59.731v179.734zm0 0"/></g></switch></svg>